<?xml version="1.0" encoding="UTF-8"?>
<svg id="Layer_1" data-name="Layer 1" xmlns="http://www.w3.org/2000/svg" viewBox="0 0 680 180">
  <defs>
    <style>
      .cls-1 {
        fill: #297496;
      }

      .cls-2 {
        fill: #0c3354;
      }
    </style>
  </defs>
  <g>
    <path class="cls-2" d="M34.21,124.07c-1.01,0-2.01-.38-2.78-1.15-1.54-1.54-1.54-4.03,0-5.56,9.96-9.98,13.94-24.63,10.39-38.24-1.79-6.86-5.38-13.12-10.38-18.12-1.54-1.54-1.54-4.03,0-5.56,1.53-1.54,4.03-1.54,5.56,0,5.99,5.98,10.3,13.49,12.44,21.7,4.25,16.3-.51,33.84-12.43,45.79-.77.77-1.78,1.15-2.78,1.15Z"/>
    <path class="cls-2" d="M22.16,112.02c-1.01,0-2.01-.38-2.78-1.15-1.54-1.54-1.54-4.03,0-5.56,5.7-5.71,7.98-14.1,5.95-21.9-1.02-3.93-3.08-7.51-5.94-10.37-1.54-1.53-1.54-4.03,0-5.56,1.54-1.54,4.03-1.54,5.56,0,3.86,3.85,6.62,8.67,8,13.96,2.73,10.48-.33,21.76-7.99,29.44-.77.77-1.78,1.15-2.78,1.15Z"/>
  </g>
  <g>
    <path class="cls-2" d="M56.87,67.06c1.07-3.39,2.38-6.71,3.93-9.93-2.96-5.31-6.64-10.21-10.97-14.54-1.54-1.53-4.03-1.53-5.56,0-1.54,1.54-1.53,4.03,0,5.56,5.42,5.41,9.7,11.84,12.61,18.89Z"/>
    <path class="cls-2" d="M56.82,111.3c-2.87,6.97-7.1,13.41-12.56,18.89-1.53,1.54-1.53,4.03,0,5.56.77.77,1.77,1.15,2.78,1.15s2.02-.38,2.78-1.15c4.35-4.36,8-9.26,10.92-14.52-1.55-3.2-2.86-6.52-3.93-9.93Z"/>
  </g>
  <g>
    <path class="cls-2" d="M169.36,35.31h20.27c4.19,0,7.18,1.02,9.27,3.23,1.73,1.91,2.81,4.61,2.81,7.24,0,2.39-.84,4.66-2.39,6.28-1.2,1.26-2.15,1.79-4.31,2.45,5.08,1.26,7.72,4.37,7.72,9.33,0,3.89-1.73,7.54-4.43,9.33-2.15,1.44-5.14,2.03-9.93,2.03h-19.02v-39.89ZM186.28,50.62c2.45,0,3.89-1.26,3.89-3.47,0-2.09-1.44-3.29-4.07-3.29h-5.44v6.76h5.62ZM186.64,66.29c2.57,0,4.25-1.38,4.25-3.59s-1.73-3.59-4.67-3.59h-5.56v7.18h5.98Z"/>
    <path class="cls-2" d="M236.28,75.2h-10.77v-4.9c-1.56,3.65-4.67,5.5-9.21,5.5-5.74,0-8.91-3.23-8.91-9.09v-21.23h11.66v18.72c0,2.39.54,3.17,2.33,3.17,2.09,0,3.41-1.56,3.41-4.07v-17.82h11.48v29.72Z"/>
    <path class="cls-2" d="M242.37,75.2v-29.72h9.69v6.16c1.44-4.84,3.59-6.7,7.89-6.7.48,0,.84,0,1.56.12v10.35c-1.02-.24-1.5-.3-2.21-.3-3.89,0-5.74,2.03-5.74,6.46v13.64h-11.18Z"/>
    <path class="cls-2" d="M282.44,75.2v-18.72c0-2.57-.66-3.59-2.45-3.59-2.21,0-3.23,1.44-3.23,4.43v17.88h-11.66v-29.72h10.83v4.19c.9-1.61,1.5-2.33,2.57-3.11,1.44-1.02,3.83-1.67,6.1-1.67,2.81,0,5.38.96,7.12,2.51,1.91,1.79,2.39,3.53,2.39,8.79v19.02h-11.66Z"/>
    <path class="cls-2" d="M330.7,65.27c-1.56,6.58-7.36,10.53-15.43,10.53-9.87,0-16.63-6.1-16.63-15.07,0-4.31,1.79-8.73,4.6-11.48,2.87-2.81,7.06-4.37,11.72-4.37,9.57,0,15.79,6.34,15.79,16.09,0,.3,0,1.02-.06,1.73h-19.86c0,2.33.18,3.11.84,3.95.78,1.02,2.03,1.55,3.71,1.55,2.63,0,3.83-.96,4.49-3.65l10.83.72ZM319.1,56.84c-.12-3.59-1.32-5.08-4.13-5.08s-4.19,1.68-4.19,5.08h8.31Z"/>
    <path class="cls-2" d="M342.06,65.51c.72,2.33,2.45,3.23,6.22,3.23,2.87,0,4.55-.66,4.55-1.79s-.84-1.44-6.22-2.15c-3.47-.48-6.46-1.38-8.37-2.45-2.45-1.32-4.01-4.19-4.01-7.24,0-6.22,5.5-10.23,13.99-10.23,6.94,0,11.6,2.69,13.58,7.78l-8.85,1.67c-.96-1.85-2.51-2.63-5.2-2.63-2.09,0-3.65.66-3.65,1.61,0,.42.3.84.84,1.14.66.36,1.14.48,5.92,1.02,4.37.54,6.46,1.14,8.43,2.45,2.45,1.67,3.83,4.25,3.83,7.3,0,6.58-5.8,10.59-15.37,10.59-8.01,0-12.8-2.93-14.89-9.03l9.21-1.26Z"/>
    <path class="cls-2" d="M415.62,60.67c-.66,4.96-1.79,7.54-4.49,10.35-3.05,3.17-7.24,4.78-12.26,4.78-11.06,0-18.12-7.83-18.12-20.21,0-6.58,1.97-12.32,5.56-16.09,3.05-3.17,7.36-4.79,12.68-4.79,6.64,0,11.48,2.63,14.29,7.72,1.38,2.45,1.97,4.49,2.33,8.25l-11.36.66c-.06-2.27-.24-3.29-.84-4.61-.78-1.79-2.45-2.99-4.37-2.99-2.03,0-3.83,1.44-4.67,3.71-.78,2.03-1.08,4.43-1.08,8.19,0,7.72,1.73,10.94,5.74,10.94,3.23,0,5.02-2.15,5.38-6.64l11.18.72Z"/>
    <path class="cls-2" d="M450.43,65.27c-1.56,6.58-7.36,10.53-15.43,10.53-9.87,0-16.63-6.1-16.63-15.07,0-4.31,1.79-8.73,4.6-11.48,2.87-2.81,7.06-4.37,11.72-4.37,9.57,0,15.79,6.34,15.79,16.09,0,.3,0,1.02-.06,1.73h-19.86c0,2.33.18,3.11.84,3.95.78,1.02,2.03,1.55,3.71,1.55,2.63,0,3.83-.96,4.49-3.65l10.83.72ZM438.83,56.84c-.12-3.59-1.32-5.08-4.13-5.08s-4.19,1.68-4.19,5.08h8.31Z"/>
    <path class="cls-2" d="M472.37,75.2v-18.72c0-2.57-.66-3.59-2.45-3.59-2.21,0-3.23,1.44-3.23,4.43v17.88h-11.66v-29.72h10.83v4.19c.9-1.61,1.5-2.33,2.57-3.11,1.44-1.02,3.83-1.67,6.1-1.67,2.81,0,5.38.96,7.12,2.51,1.91,1.79,2.39,3.53,2.39,8.79v19.02h-11.66Z"/>
    <path class="cls-2" d="M508.49,53.07h-5.92v10.94c0,2.27.66,3.05,2.69,3.05.9,0,2.03-.18,3.23-.48v8.31c-2.69.48-4.43.66-6.7.66-4.01,0-6.28-.72-8.07-2.51-1.5-1.5-2.15-3.05-2.33-5.68q-.06-.78-.06-4.96v-9.33h-4.43v-7.6h4.96l.78-9.51,10.17-.36-.24,9.87h5.92v7.6Z"/>
    <path class="cls-2" d="M542.82,65.27c-1.56,6.58-7.36,10.53-15.43,10.53-9.87,0-16.63-6.1-16.63-15.07,0-4.31,1.79-8.73,4.6-11.48,2.87-2.81,7.06-4.37,11.72-4.37,9.57,0,15.79,6.34,15.79,16.09,0,.3,0,1.02-.06,1.73h-19.86c0,2.33.18,3.11.84,3.95.78,1.02,2.03,1.55,3.71,1.55,2.63,0,3.83-.96,4.49-3.65l10.83.72ZM531.22,56.84c-.12-3.59-1.32-5.08-4.13-5.08s-4.19,1.68-4.19,5.08h8.31Z"/>
    <path class="cls-2" d="M547.42,75.2v-29.72h9.69v6.16c1.44-4.84,3.59-6.7,7.89-6.7.48,0,.84,0,1.55.12v10.35c-1.02-.24-1.49-.3-2.21-.3-3.89,0-5.74,2.03-5.74,6.46v13.64h-11.18Z"/>
    <path class="cls-2" d="M181.5,135h-11v-22.13h-4.43v-7.6h4.43c0-5.02.24-6.34,1.61-8.37,1.79-2.63,4.66-3.77,9.75-3.77,2.87,0,5.26.24,8.43.78v7.54q-4.19-.48-5.26-.48c-2.63,0-3.65.9-3.65,3.35v.96h7.6v7.6h-7.48v22.13Z"/>
    <path class="cls-2" d="M223.18,120.23c0,8.97-6.88,15.37-16.51,15.37s-16.09-6.46-16.09-15.37,6.82-15.55,16.33-15.55,16.27,6.28,16.27,15.55ZM202.97,120.17c0,6.1,1.08,8.37,3.83,8.37,1.61,0,2.69-.66,3.17-1.97.48-1.44.84-4.07.84-6.64,0-5.8-1.08-7.95-3.89-7.95s-3.95,2.39-3.95,8.19Z"/>
    <path class="cls-2" d="M227.66,135v-29.72h9.69v6.16c1.44-4.84,3.59-6.7,7.89-6.7.48,0,.84,0,1.55.12v10.35c-1.02-.24-1.49-.3-2.21-.3-3.89,0-5.74,2.03-5.74,6.46v13.64h-11.18Z"/>
    <path class="cls-2" d="M273.05,121.43c1.26,3.47,3.23,4.78,7.42,4.78,2.93,0,4.55-.9,4.55-2.51s-1.26-2.51-4.84-3.17c-4.84-.96-8.25-2.03-10.88-3.41-3.53-1.79-5.56-5.32-5.56-9.51,0-7.89,6.46-13.1,16.39-13.1,8.19,0,13.7,3.29,16.27,9.81l-10.17,3.05c-1.14-2.81-3.05-4.01-6.4-4.01-2.45,0-3.95.96-3.95,2.51s1.02,2.15,4.43,2.87c7.42,1.56,8.97,2.03,11.54,3.41,3.47,1.91,5.62,5.68,5.62,9.93,0,8.13-7.12,13.52-17.88,13.52-5.8,0-10.41-1.61-13.82-4.84-2.03-1.97-3.05-3.77-4.07-7.3l11.36-2.03Z"/>
    <path class="cls-2" d="M332.86,120.23c0,8.97-6.88,15.37-16.51,15.37s-16.09-6.46-16.09-15.37,6.82-15.55,16.33-15.55,16.27,6.28,16.27,15.55ZM312.64,120.17c0,6.1,1.08,8.37,3.83,8.37,1.61,0,2.69-.66,3.17-1.97.48-1.44.84-4.07.84-6.64,0-5.8-1.08-7.95-3.89-7.95s-3.95,2.39-3.95,8.19Z"/>
    <path class="cls-2" d="M365.15,123.88c-.54,3.29-1.32,5.14-3.05,7.18-2.69,3.11-6.22,4.55-11.12,4.55-4.31,0-7.48-1.14-10.29-3.65-3.17-2.87-4.9-6.94-4.9-11.6,0-9.27,6.28-15.67,15.43-15.67,4.13,0,7.6,1.32,10.23,4.01,2.15,2.21,3.05,4.19,3.59,7.77l-10.17.9c-.3-1.67-.36-1.91-.6-2.57-.48-1.38-1.56-2.15-2.99-2.15-2.57,0-3.59,2.21-3.59,7.66,0,5.02,1.14,7.12,3.77,7.12,2.15,0,3.35-1.32,3.77-4.37l9.93.84Z"/>
    <path class="cls-2" d="M380.28,103.13h-11.66v-9.21h11.66v9.21ZM380.28,135h-11.66v-29.72h11.66v29.72Z"/>
    <path class="cls-2" d="M405.28,135c-.36-1.67-.42-2.63-.42-4.13-2.39,3.29-5.2,4.72-9.57,4.72-6.28,0-10.47-3.53-10.47-8.85,0-4.13,2.81-7.66,7.42-9.15,3.35-1.08,7.24-1.67,12.02-1.91v-.72c0-2.33-.96-3.23-3.53-3.23s-4.13,1.08-4.49,3.23l-10.59-.96c.84-3.17,1.91-4.84,4.13-6.4,2.87-2.03,6.34-2.93,11.3-2.93,5.98,0,10.47,1.5,12.62,4.13,1.44,1.73,1.73,3.29,1.73,8.55v11.84c0,2.63.12,3.59.9,5.8h-11.06ZM404.26,121.13c-5.02.54-7.42,2.09-7.42,4.72,0,1.67,1.08,2.69,2.93,2.69,3.17,0,4.49-1.73,4.49-6.04v-1.38Z"/>
    <path class="cls-2" d="M432.97,135h-11.48v-39.89h11.48v39.89Z"/>
    <path class="cls-2" d="M487.57,120.47c-.66,4.96-1.79,7.54-4.49,10.35-3.05,3.17-7.24,4.78-12.26,4.78-11.06,0-18.12-7.83-18.12-20.21,0-6.58,1.97-12.32,5.56-16.09,3.05-3.17,7.36-4.79,12.68-4.79,6.64,0,11.48,2.63,14.29,7.72,1.38,2.45,1.97,4.49,2.33,8.25l-11.36.66c-.06-2.27-.24-3.29-.84-4.61-.78-1.79-2.45-2.99-4.37-2.99-2.03,0-3.83,1.44-4.67,3.71-.78,2.03-1.08,4.43-1.08,8.19,0,7.72,1.73,10.94,5.74,10.94,3.23,0,5.02-2.15,5.38-6.64l11.18.72Z"/>
    <path class="cls-2" d="M509.15,135v-17.88c0-2.39-.06-2.69-.48-3.35-.42-.6-1.2-.96-2.09-.96-1.49,0-2.81.96-3.17,2.27q-.12.6-.12,3.11v16.81h-11.66v-39.89h11.66v13.7c2.21-2.87,4.72-4.13,8.19-4.13,3.29,0,5.98,1.14,7.66,3.29,1.38,1.79,1.67,3.05,1.67,7.72v19.32h-11.66Z"/>
    <path class="cls-2" d="M545.87,135c-.36-1.67-.42-2.63-.42-4.13-2.39,3.29-5.2,4.72-9.57,4.72-6.28,0-10.47-3.53-10.47-8.85,0-4.13,2.81-7.66,7.42-9.15,3.35-1.08,7.24-1.67,12.02-1.91v-.72c0-2.33-.96-3.23-3.53-3.23s-4.13,1.08-4.49,3.23l-10.59-.96c.84-3.17,1.91-4.84,4.13-6.4,2.87-2.03,6.34-2.93,11.3-2.93,5.98,0,10.47,1.5,12.62,4.13,1.44,1.73,1.73,3.29,1.73,8.55v11.84c0,2.63.12,3.59.9,5.8h-11.06ZM544.86,121.13c-5.02.54-7.42,2.09-7.42,4.72,0,1.67,1.08,2.69,2.93,2.69,3.17,0,4.49-1.73,4.49-6.04v-1.38Z"/>
    <path class="cls-2" d="M579.42,135v-18.72c0-2.57-.66-3.59-2.45-3.59-2.21,0-3.23,1.44-3.23,4.43v17.88h-11.66v-29.72h10.83v4.19c.9-1.61,1.5-2.33,2.57-3.11,1.44-1.02,3.83-1.67,6.1-1.67,2.81,0,5.38.96,7.12,2.51,1.91,1.79,2.39,3.53,2.39,8.79v19.02h-11.66Z"/>
    <path class="cls-2" d="M628.16,106.54c-1.73-.12-2.39-.18-2.81-.18-1.91,0-2.69.24-3.29,1.14,2.15,1.73,3.35,4.19,3.35,6.82,0,5.74-4.9,8.97-13.64,8.97q-.36,0-2.21-.12h-.36c-2.03,0-2.87.42-2.87,1.44,0,.96.6,1.32,2.51,1.38l9.51.42c2.87.12,5.38.9,6.94,2.21,1.91,1.56,3.17,4.37,3.17,7,0,3.23-1.79,6.16-4.61,7.6-3.05,1.5-6.76,2.09-13.16,2.09-10.94,0-16.21-2.45-16.21-7.48,0-2.69,1.32-4.43,4.25-5.68-1.97-1.49-2.75-2.81-2.75-4.66s.9-3.59,2.39-4.79c.84-.66,1.49-1.02,3.35-1.79-3.47-1.68-4.78-3.53-4.78-6.88,0-5.92,5.38-9.39,14.41-9.39,2.21,0,3.41.12,5.56.66.84-4.84,3.11-7,7.36-7,1.14,0,1.62,0,4.19.24l-.3,8.01ZM608.43,134.64c-.42-.06-.96-.06-1.26-.06-2.27,0-3.05.48-3.05,1.85,0,1.97,2.27,2.75,8.01,2.75,4.73,0,6.1-.54,6.1-2.33,0-1.32-.72-1.79-2.69-1.91l-7.12-.3ZM607.89,114.13c0,2.33,1.26,3.65,3.47,3.65s3.47-1.32,3.47-3.59-1.26-3.71-3.41-3.71-3.53,1.38-3.53,3.65Z"/>
    <path class="cls-2" d="M661.71,125.08c-1.56,6.58-7.36,10.53-15.43,10.53-9.87,0-16.63-6.1-16.63-15.07,0-4.31,1.79-8.73,4.6-11.48,2.87-2.81,7.06-4.37,11.72-4.37,9.57,0,15.79,6.34,15.79,16.09,0,.3,0,1.02-.06,1.73h-19.86c0,2.33.18,3.11.84,3.95.78,1.02,2.03,1.55,3.71,1.55,2.63,0,3.83-.96,4.49-3.65l10.83.72ZM650.11,116.64c-.12-3.59-1.32-5.08-4.13-5.08s-4.19,1.68-4.19,5.08h8.31Z"/>
  </g>
  <g>
    <path class="cls-1" d="M83.36,136.9c-1.01,0-2.01-.38-2.78-1.15-8.27-8.26-14.21-18.62-17.17-29.95-5.87-22.5.71-46.71,17.16-63.2,1.53-1.54,4.03-1.54,5.56,0,1.54,1.54,1.54,4.03,0,5.56-14.49,14.52-20.28,35.84-15.12,55.65,2.6,9.98,7.83,19.1,15.11,26.37,1.54,1.54,1.54,4.03,0,5.56-.77.77-1.78,1.15-2.78,1.15Z"/>
    <path class="cls-1" d="M96.19,124.07c-1.01,0-2.01-.38-2.78-1.15-6-5.98-10.3-13.49-12.44-21.7-4.25-16.3.51-33.84,12.43-45.79,1.53-1.54,4.03-1.54,5.56,0,1.54,1.54,1.54,4.03,0,5.56-9.96,9.98-13.94,24.63-10.39,38.24,1.79,6.86,5.38,13.12,10.38,18.12,1.54,1.54,1.54,4.03,0,5.56-.77.77-1.78,1.15-2.78,1.15Z"/>
    <path class="cls-1" d="M108.23,112.02c-1.01,0-2.01-.38-2.78-1.15-3.86-3.85-6.62-8.67-8-13.96-2.73-10.48.33-21.76,7.99-29.44,1.53-1.54,4.03-1.54,5.56,0,1.54,1.54,1.54,4.03,0,5.56-5.7,5.71-7.98,14.1-5.95,21.9,1.02,3.93,3.08,7.51,5.94,10.37,1.54,1.53,1.54,4.03,0,5.56-.77.77-1.78,1.15-2.78,1.15Z"/>
  </g>
</svg>