<svg width="198" height="29" viewBox="0 0 198 29" fill="none" xmlns="http://www.w3.org/2000/svg">
<path d="M7.90005 7.29995C7.30005 7.29995 6.70005 7.09995 6.30005 6.59995C5.90005 6.19995 5.70005 5.59995 5.70005 4.99995C5.70005 4.39995 5.90005 3.89995 6.30005 3.39995C6.70005 2.99995 7.30005 2.69995 7.90005 2.69995C8.60005 2.79995 9.10005 2.99995 9.50005 3.49995C9.90005 3.89995 10.2 4.49995 10.2 5.09995C10.2 5.69995 10 6.19995 9.50005 6.69995C9.10005 7.09995 8.60005 7.29995 7.90005 7.29995ZM11.5 24.4C9.80005 24.4 8.50005 24 7.60005 23.2C6.70005 22.4 6.30005 21.2 6.30005 19.6V12.6H1.30005V10.1H9.50005V19.2999C9.50005 20.0999 9.70005 20.7 10.1 21.1C10.5 21.5 11.1 21.7 11.9 21.7C12.4 21.7 12.8 21.7 13.3 21.6C13.8 21.5 14.2 21.4 14.8 21.2V23.9C14.4 24.1 13.9 24.1999 13.3 24.2999C12.7 24.2999 12.1 24.4 11.5 24.4Z" fill="#124D8F"/>
<path d="M18.7 24.1V10.1H21.9V12.2C22.9999 10.7 24.4 9.90002 26.2 9.90002C27.2 9.90002 28 10.1 28.7 10.5C29.4 10.9 30 11.5 30.4 12.3C30.7999 13 31 13.9 31 14.9V24.1H27.7999V15.8C27.7999 14.8 27.5 14 27 13.4C26.4 12.8 25.6999 12.5 24.7999 12.5C24.1999 12.5 23.7 12.6 23.1 12.9C22.6 13.2 22.1999 13.5 21.7999 14V24.2H18.7V24.1Z" fill="#124D8F"/>
<path d="M35.5 24.1V10.1H38.7V12.2C39.8 10.7 41.2 9.90002 43 9.90002C44 9.90002 44.8 10.1 45.5 10.5C46.2 10.9 46.8 11.5 47.2 12.3C47.6 13 47.8 13.9 47.8 14.9V24.1H44.6V15.8C44.6 14.8 44.3 14 43.8 13.4C43.2 12.8 42.5 12.5 41.6 12.5C41 12.5 40.5 12.6 39.9 12.9C39.4 13.2 39 13.5 38.6 14V24.2H35.5V24.1Z" fill="#124D8F"/>
<path d="M58.3999 24.4C57.0999 24.4 55.8999 24.1 54.7999 23.4C53.6999 22.7 52.8999 21.9 52.2999 20.8C51.6999 19.7 51.3999 18.5 51.3999 17.1C51.3999 15.7 51.6999 14.5 52.2999 13.4C52.8999 12.3 53.7999 11.4 54.7999 10.8C55.8999 10.1 57.0999 9.80005 58.3999 9.80005C59.6999 9.80005 60.8999 10.1 61.9999 10.8C63.0999 11.4 63.8999 12.3 64.4999 13.4C65.0999 14.5 65.3999 15.7 65.3999 17.1C65.3999 18.5 65.0999 19.7 64.4999 20.8C63.8999 21.9 62.9999 22.8 61.9999 23.4C60.8999 24.1 59.6999 24.4 58.3999 24.4ZM58.3999 21.7C59.1999 21.7 59.7999 21.5 60.3999 21.1C60.9999 20.7 61.4999 20.2 61.7999 19.5C62.1999 18.8 62.2999 18 62.2999 17.1C62.2999 16.2 62.0999 15.4 61.7999 14.8C61.4999 14.1 60.9999 13.6 60.3999 13.2C59.7999 12.8 59.0999 12.6 58.3999 12.6C57.6999 12.6 56.9999 12.8 56.3999 13.2C55.7999 13.6 55.3999 14.1 54.9999 14.8C54.6999 15.5 54.4999 16.2 54.4999 17.1C54.4999 18 54.6999 18.8 54.9999 19.5C55.3999 20.2 55.7999 20.7 56.3999 21.1C56.8999 21.5 57.5999 21.7 58.3999 21.7Z" fill="#124D8F"/>
<path d="M73.6 24.1L67.7 10.1H71.1L75.2 20.4L79.2 10.1H82.5L76.6 24.1H73.6Z" fill="#124D8F"/>
<path d="M90.3 24.4C89.3 24.4 88.4 24.2 87.7 23.9C86.9 23.5 86.3 23 85.9 22.4C85.5 21.8 85.3 21 85.3 20.2C85.3 19.3 85.5 18.6 85.9 18C86.3 17.4 87 16.9 87.8 16.6C88.6 16.3 89.6 16.1 90.7 16.1C91.4 16.1 92 16.2 92.7 16.3C93.3 16.4 94 16.7 94.6 17V15.6C94.6 14.6 94.3 13.9 93.8 13.4C93.3 12.9 92.4 12.6 91.3 12.6C90.7 12.6 90 12.7 89.3 12.9C88.6 13.1 87.9 13.4 87 13.8L85.8 11.5C86.9 11 87.9 10.6 88.9 10.3C89.9 10.1 90.9 9.90002 91.8 9.90002C93.6 9.90002 95.1 10.4 96.1 11.3C97.1 12.2 97.6 13.5 97.6 15.2V24.2H94.5V22.7C93.9 23.3 93.2 23.7 92.5 24C91.9 24.2 91.2 24.4 90.3 24.4ZM88.3 20C88.3 20.7 88.6 21.2 89.1 21.6C89.6 22 90.4 22.2 91.3 22.2C92 22.2 92.6 22.1 93.1 21.9C93.7 21.7 94.2 21.4 94.7 21V18.8C94.2 18.6 93.7 18.4 93.1 18.3C92.5 18.1 91.9 18 91.3 18C90.4 18 89.6 18.2 89.1 18.6C88.5 18.9 88.3 19.4 88.3 20Z" fill="#124D8F"/>
<path d="M111.2 24.4C109.4 24.4 108.1 24 107.2 23.3C106.3 22.5 105.9 21.4 105.9 19.9V12.7H101.4V10.2H105.9V6.2L109.1 5.5V10H115V12.5H109.1V19.1C109.1 20 109.3 20.6 109.7 21C110.1 21.4 110.8 21.6 111.7 21.6C112.2 21.6 112.7 21.6 113.2 21.5C113.7 21.4 114.4 21.2 115 21V23.7C114.4 23.9 113.8 24 113.1 24.1C112.5 24.3 111.8 24.4 111.2 24.4Z" fill="#124D8F"/>
<path d="M125.9 24.4C124.5 24.4 123.3 24.1 122.2 23.4C121.1 22.7 120.2 21.9 119.6 20.8C119 19.7 118.6 18.5 118.6 17.1C118.6 15.7 118.9 14.5 119.5 13.4C120.1 12.3 120.9 11.5 122 10.8C123.1 10.1 124.2 9.80005 125.6 9.80005C127 9.80005 128.2 10.1 129.2 10.8C130.3 11.4 131.1 12.3 131.7 13.4C132.3 14.5 132.6 15.7 132.6 17.1V17.9H121.7C121.8 18.7 122 19.3 122.4 19.9C122.8 20.5 123.3 20.9 123.9 21.3C124.5 21.6 125.2 21.8 126 21.8C126.7 21.8 127.4 21.7 128 21.4C128.6 21.1 129.2 20.7 129.6 20.2L131.7 22.1C130.9 22.9 130 23.5 129 23.9C128.1 24.2 127.1 24.4 125.9 24.4ZM121.8 15.9H129.6C129.5 15.2 129.2 14.6 128.9 14.1C128.5 13.6 128.1 13.2 127.5 12.9C127 12.6 126.3 12.5 125.7 12.5C125 12.5 124.5 12.6 123.9 12.9C123.4 13.2 122.9 13.6 122.6 14.1C122.2 14.6 121.9 15.2 121.8 15.9Z" fill="#124D8F"/>
<path d="M146.3 28.1C144.6 27.3 143.2 26.3 141.9 25C140.7 23.7 139.7 22.2 139 20.5C138.3 18.8 138 17 138 15C138 13 138.3 11.2 139 9.50002C139.7 7.80002 140.7 6.30002 141.9 5.00002C143.2 3.70002 144.6 2.70002 146.3 1.90002L147.6 4.10002C145.4 5.20002 143.7 6.70002 142.6 8.60002C141.5 10.4 140.9 12.6 140.9 15C140.9 17.5 141.5 19.6 142.6 21.5C143.7 23.3 145.4 24.8 147.6 26L146.3 28.1Z" fill="#D09006"/>
<path d="M157.7 22.1C156.7 22.1 155.9 21.9 155.2 21.5C154.5 21.1 153.9 20.5 153.5 19.7C153.1 19 152.9 18.1 152.9 17.1V7.80005H156.1V16.1C156.1 17.1 156.4 18 156.9 18.6C157.5 19.2 158.2 19.5 159.1 19.5C159.7 19.5 160.3 19.4 160.8 19.1C161.3 18.8 161.7 18.5 162.1 18V7.80005H165.3V21.8H162.1V19.7C160.9 21.3 159.5 22.1 157.7 22.1Z" fill="#D09006"/>
<path d="M175.7 22.1C174.4 22.1 173.2 21.9 172.1 21.6C171 21.2 170.1 20.7 169.3 20.1L170.8 18C171.8 18.6 172.6 19 173.4 19.3C174.2 19.5 174.9 19.7 175.7 19.7C176.7 19.7 177.5 19.5 178.1 19.2C178.7 18.9 179 18.4 179 17.9C179 17.5 178.8 17.1 178.5 16.9C178.2 16.7 177.7 16.5 177.2 16.4C176.7 16.3 176.1 16.2 175.4 16.1C174.7 16 174.1 15.9 173.4 15.7C172.7 15.6 172.1 15.3 171.6 15.1C171.1 14.8 170.6 14.4 170.3 14C170 13.5 169.8 12.8 169.8 12C169.8 11.1 170 10.3 170.5 9.69995C171 8.99995 171.7 8.49995 172.5 8.19995C173.4 7.79995 174.4 7.69995 175.6 7.69995C176.7 7.69995 177.7 7.79995 178.7 8.09995C179.7 8.39995 180.7 8.79995 181.6 9.49995L180.1 11.6C179.4 11.1 178.6 10.7 177.8 10.5C177 10.3 176.3 10.2 175.5 10.2C174.6 10.2 173.9 10.3 173.4 10.6C172.9 10.9 172.6 11.3 172.6 11.8C172.6 12.2 172.8 12.6 173.1 12.8C173.4 13 173.9 13.2 174.4 13.3C175 13.4 175.6 13.5 176.2 13.6C176.8 13.7 177.5 13.8 178.2 14C178.9 14.1 179.5 14.4 180 14.6C180.6 14.9 181 15.3 181.3 15.8C181.6 16.3 181.8 17 181.8 17.8C181.8 18.7 181.5 19.5 181 20.2C180.5 20.9 179.7 21.4 178.8 21.8C177.9 21.9 176.9 22.1 175.7 22.1Z" fill="#D09006"/>
<path d="M188.5 1.90002C190.2 2.70002 191.6 3.70002 192.9 5.00002C194.2 6.30002 195.1 7.80002 195.8 9.50002C196.5 11.2 196.8 13 196.8 15C196.8 17 196.5 18.8 195.8 20.5C195.1 22.2 194.2 23.7 192.9 25C191.7 26.3 190.2 27.3 188.5 28.1L187.2 25.9C189.4 24.8 191.1 23.3 192.2 21.4C193.3 19.6 193.9 17.4 193.9 15C193.9 12.5 193.3 10.4 192.2 8.60002C191.1 6.80002 189.4 5.30002 187.2 4.10002L188.5 1.90002Z" fill="#D09006"/>
</svg>
