<svg width="188" height="50" viewBox="0 0 188 50" fill="none" xmlns="http://www.w3.org/2000/svg">
<g clip-path="url(#clip0_1_46)">
<path d="M7.69277 17.125C8.52045 16.3731 8.58706 15.086 7.84098 14.251C7.11405 13.4377 5.87919 13.3495 5.04735 14.0535C-1.06452 19.4051 -1.71817 28.7412 3.58516 34.9068C8.88849 41.0724 18.142 41.7328 24.2531 36.3812C30.3641 31.0297 31.0186 21.6944 25.7144 15.5288C25.2365 14.9735 24.7177 14.4543 24.1631 13.9762C23.3163 13.2462 22.0431 13.347 21.3187 14.2014C20.5951 15.0558 20.695 16.3403 21.5419 17.0712C23.9058 19.106 25.2664 22.0842 25.2656 25.2186C25.2656 31.1246 20.5027 35.9301 14.649 35.9301C8.79523 35.9301 4.03231 31.123 4.03231 25.217C4.03231 22.1127 5.36709 19.1606 7.6911 17.1258" fill="#5BC1A7"/>
<path d="M16.743 26.1253V12.0142C16.743 10.9019 15.8058 10 14.65 10C13.4942 10 12.557 10.9019 12.557 12.0142V26.1253C12.557 27.2376 13.4942 28.1395 14.65 28.1395C15.8058 28.1395 16.743 27.2376 16.743 26.1253Z" fill="#5BC1A7"/>
<path d="M68.0212 22.12C68.0212 23.0267 67.7812 23.84 67.3012 24.56C67.1145 24.8267 66.7812 25.2 66.3012 25.68C65.8212 26.1333 65.4345 26.4667 65.1412 26.68C64.7945 26.9467 64.4478 27.1333 64.1012 27.24L68.8612 37H64.3012L59.8612 27.56H55.2612V37H51.0612V13.08H62.3012C63.3678 13.08 64.3145 13.3733 65.1412 13.96C65.4078 14.1467 65.7812 14.4933 66.2612 15C66.7678 15.5067 67.1145 15.8933 67.3012 16.16C67.7812 16.88 68.0212 17.6933 68.0212 18.6V22.12ZM63.8212 22.08V18.64C63.8212 18.5067 63.8078 18.4133 63.7812 18.36C63.3278 17.56 62.9012 17.1333 62.5012 17.08H55.2612V23.56H62.3012C62.4878 23.56 62.7412 23.4133 63.0612 23.12C63.3812 22.8267 63.6212 22.5333 63.7812 22.24C63.8078 22.1867 63.8212 22.1333 63.8212 22.08ZM90.0652 37H75.0252V13.08H90.0652V17.08H79.2252V23.12H89.3052V27.12H79.2252V33H90.0652V37ZM113.37 31.56C113.37 32.4933 113.144 33.2933 112.69 33.96C112.504 34.2267 112.17 34.6133 111.69 35.12C111.21 35.6 110.837 35.9333 110.57 36.12C109.744 36.7067 108.784 37 107.69 37H96.4502V13.08H107.69C108.73 13.08 109.69 13.3867 110.57 14C110.837 14.1867 111.21 14.5333 111.69 15.04C112.17 15.52 112.504 15.8933 112.69 16.16C113.144 16.8267 113.37 17.6533 113.37 18.64V21.6C113.37 22.88 112.85 24.04 111.81 25.08C112.85 26.12 113.37 27.2667 113.37 28.52V31.56ZM109.13 21.8C109.157 21.7467 109.17 21.6533 109.17 21.52V18.68L109.13 18.48C108.944 18.16 108.69 17.8533 108.37 17.56C108.077 17.24 107.837 17.08 107.65 17.08H100.65V23.12H107.69C107.877 23.12 108.13 22.9733 108.45 22.68C108.77 22.3867 108.997 22.0933 109.13 21.8ZM109.13 31.68C109.157 31.6 109.17 31.5067 109.17 31.4V28.56L109.13 28.36C108.944 28.04 108.69 27.7333 108.37 27.44C108.077 27.1467 107.837 27 107.65 27H100.65V33H107.69C107.877 33 108.13 32.8533 108.45 32.56C108.77 32.2667 108.997 31.9733 109.13 31.68ZM137.638 31.32C137.638 32.2 137.424 32.96 136.998 33.6C136.678 34.0267 136.198 34.56 135.558 35.2C134.944 35.84 134.451 36.2667 134.078 36.48C133.304 36.96 132.478 37.2 131.598 37.2H125.518C124.638 37.2 123.811 36.96 123.038 36.48C122.664 36.2667 122.144 35.84 121.478 35.2C120.838 34.5333 120.384 34 120.118 33.6C119.691 32.96 119.478 32.2 119.478 31.32V18.8C119.478 17.92 119.691 17.16 120.118 16.52C120.384 16.12 120.838 15.6 121.478 14.96C122.144 14.2933 122.664 13.8533 123.038 13.64C123.811 13.16 124.638 12.92 125.518 12.92H131.598C132.478 12.92 133.304 13.16 134.078 13.64C134.451 13.8533 134.944 14.28 135.558 14.92C136.198 15.56 136.678 16.0933 136.998 16.52C137.424 17.16 137.638 17.92 137.638 18.8V31.32ZM123.678 18.92V31.28C123.678 31.36 123.691 31.4133 123.718 31.44C124.251 32.24 124.838 32.8133 125.478 33.16C125.531 33.1867 125.598 33.2 125.678 33.2H131.438C131.518 33.2 131.584 33.1867 131.638 33.16C132.278 32.8133 132.864 32.24 133.398 31.44L133.438 31.28V18.92C133.438 18.8133 133.424 18.7467 133.398 18.72C132.838 17.8933 132.251 17.3067 131.638 16.96C131.584 16.9333 131.518 16.92 131.438 16.92H125.678C125.571 16.92 125.504 16.9333 125.478 16.96C124.864 17.3067 124.278 17.8933 123.718 18.72L123.678 18.92ZM161.992 31.32C161.992 32.2 161.779 32.96 161.352 33.6C161.032 34.0267 160.552 34.56 159.912 35.2C159.299 35.84 158.806 36.2667 158.432 36.48C157.659 36.96 156.832 37.2 155.952 37.2H149.872C148.992 37.2 148.166 36.96 147.392 36.48C147.019 36.2667 146.499 35.84 145.832 35.2C145.192 34.5333 144.739 34 144.472 33.6C144.046 32.96 143.832 32.2 143.832 31.32V18.8C143.832 17.92 144.046 17.16 144.472 16.52C144.739 16.12 145.192 15.6 145.832 14.96C146.499 14.2933 147.019 13.8533 147.392 13.64C148.166 13.16 148.992 12.92 149.872 12.92H155.952C156.832 12.92 157.659 13.16 158.432 13.64C158.806 13.8533 159.299 14.28 159.912 14.92C160.552 15.56 161.032 16.0933 161.352 16.52C161.779 17.16 161.992 17.92 161.992 18.8V31.32ZM148.032 18.92V31.28C148.032 31.36 148.046 31.4133 148.072 31.44C148.606 32.24 149.192 32.8133 149.832 33.16C149.886 33.1867 149.952 33.2 150.032 33.2H155.792C155.872 33.2 155.939 33.1867 155.992 33.16C156.632 32.8133 157.219 32.24 157.752 31.44L157.792 31.28V18.92C157.792 18.8133 157.779 18.7467 157.752 18.72C157.192 17.8933 156.606 17.3067 155.992 16.96C155.939 16.9333 155.872 16.92 155.792 16.92H150.032C149.926 16.92 149.859 16.9333 149.832 16.96C149.219 17.3067 148.632 17.8933 148.072 18.72L148.032 18.92ZM184.027 17.08H177.547V37H173.347V17.08H166.867V13.08H184.027V17.08Z" fill="white"/>
</g>
<defs>
<clipPath id="clip0_1_46">
<rect width="187.3" height="50" fill="white"/>
</clipPath>
</defs>
</svg>
