<svg width="24" height="24" viewBox="0 0 24 24" fill="none" xmlns="http://www.w3.org/2000/svg">
<g id="Frame">
<path id="Vector" d="M15 3.02344V20.9709C15.0023 21.1052 14.9697 21.2379 14.9055 21.3558C14.8412 21.4738 14.7475 21.5731 14.6334 21.6441C14.5038 21.7212 14.354 21.7574 14.2035 21.748C14.0529 21.7387 13.9087 21.6841 13.7897 21.5916L7.6425 16.8103C7.59793 16.7751 7.56195 16.7302 7.53726 16.6791C7.51258 16.6279 7.49984 16.5718 7.5 16.515V7.485C7.50017 7.42797 7.51335 7.37172 7.53853 7.32055C7.56371 7.26938 7.60023 7.22462 7.64531 7.18969L13.7925 2.40844C13.9272 2.30405 14.0935 2.24865 14.2639 2.25138C14.4343 2.2541 14.5987 2.31479 14.73 2.42344C14.8162 2.49753 14.8851 2.58969 14.9318 2.69337C14.9785 2.79706 15.0017 2.90975 15 3.02344ZM5.625 7.5H3C2.60218 7.5 2.22064 7.65803 1.93934 7.93934C1.65804 8.22064 1.5 8.60217 1.5 9V15C1.5 15.3978 1.65804 15.7794 1.93934 16.0607C2.22064 16.342 2.60218 16.5 3 16.5H5.625C5.72446 16.5 5.81984 16.4605 5.89016 16.3902C5.96049 16.3198 6 16.2245 6 16.125V7.875C6 7.77554 5.96049 7.68016 5.89016 7.60983C5.81984 7.53951 5.72446 7.5 5.625 7.5Z" fill="black"/>
<path id="Vector_2" d="M22.5303 16.4697L18.0603 12.0003L22.5303 7.53033C22.8232 7.2374 22.8232 6.76253 22.5303 6.4696C22.2374 6.17667 21.7625 6.17667 21.4696 6.4696L16.9996 10.9396L12.5296 6.4696C12.2367 6.17667 11.7618 6.17667 11.4689 6.4696C11.1759 6.76253 11.1759 7.2374 11.4689 7.53033L15.9389 12.0003L11.4689 16.4697C11.1759 16.7626 11.1759 17.2375 11.4689 17.5304C11.6153 17.6768 11.8082 17.75 12.0003 17.75C12.1923 17.75 12.3853 17.6768 12.5316 17.5304L17.0016 13.0604L21.4716 17.5304C21.618 17.6768 21.8109 17.75 22.003 17.75C22.195 17.75 22.388 17.6768 22.5343 17.5304C22.8232 17.2375 22.8232 16.7626 22.5303 16.4697Z" fill="black"/>
</g>
</svg>