<svg width="188" height="50" viewBox="0 0 188 50" fill="none" xmlns="http://www.w3.org/2000/svg">
<g clip-path="url(#clip0_70_175)">
<path d="M7.69393 17.125C8.52161 16.3731 8.58822 15.086 7.84214 14.251C7.11522 13.4377 5.88035 13.3495 5.04851 14.0535C-1.06336 19.4051 -1.71701 28.7412 3.58632 34.9068C8.88965 41.0724 18.1432 41.7328 24.2542 36.3812C30.3653 31.0297 31.0198 21.6944 25.7156 15.5288C25.2376 14.9735 24.7189 14.4543 24.1643 13.9762C23.3175 13.2462 22.0443 13.347 21.3199 14.2014C20.5963 15.0558 20.6962 16.3403 21.543 17.0712C23.907 19.106 25.2676 22.0842 25.2668 25.2186C25.2668 31.1246 20.5039 35.9301 14.6501 35.9301C8.79639 35.9301 4.03347 31.123 4.03347 25.217C4.03347 22.1127 5.36825 19.1606 7.69226 17.1258" fill="#5BC1A7"/>
<path d="M16.7442 26.1253V12.0142C16.7442 10.9019 15.8069 10 14.6511 10C13.4953 10 12.5581 10.9019 12.5581 12.0142V26.1253C12.5581 27.2376 13.4953 28.1395 14.6511 28.1395C15.8069 28.1395 16.7442 27.2376 16.7442 26.1253Z" fill="#5BC1A7"/>
<path d="M68.0224 22.12C68.0224 23.0267 67.7824 23.84 67.3024 24.56C67.1157 24.8267 66.7824 25.2 66.3024 25.68C65.8224 26.1333 65.4357 26.4667 65.1424 26.68C64.7957 26.9467 64.449 27.1333 64.1024 27.24L68.8624 37H64.3024L59.8624 27.56H55.2624V37H51.0624V13.08H62.3024C63.369 13.08 64.3157 13.3733 65.1424 13.96C65.409 14.1467 65.7824 14.4933 66.2624 15C66.769 15.5067 67.1157 15.8933 67.3024 16.16C67.7824 16.88 68.0224 17.6933 68.0224 18.6V22.12ZM63.8224 22.08V18.64C63.8224 18.5067 63.809 18.4133 63.7824 18.36C63.329 17.56 62.9024 17.1333 62.5024 17.08H55.2624V23.56H62.3024C62.489 23.56 62.7424 23.4133 63.0624 23.12C63.3824 22.8267 63.6224 22.5333 63.7824 22.24C63.809 22.1867 63.8224 22.1333 63.8224 22.08ZM90.0664 37H75.0264V13.08H90.0664V17.08H79.2264V23.12H89.3064V27.12H79.2264V33H90.0664V37ZM113.371 31.56C113.371 32.4933 113.145 33.2933 112.691 33.96C112.505 34.2267 112.171 34.6133 111.691 35.12C111.211 35.6 110.838 35.9333 110.571 36.12C109.745 36.7067 108.785 37 107.691 37H96.4514V13.08H107.691C108.731 13.08 109.691 13.3867 110.571 14C110.838 14.1867 111.211 14.5333 111.691 15.04C112.171 15.52 112.505 15.8933 112.691 16.16C113.145 16.8267 113.371 17.6533 113.371 18.64V21.6C113.371 22.88 112.851 24.04 111.811 25.08C112.851 26.12 113.371 27.2667 113.371 28.52V31.56ZM109.131 21.8C109.158 21.7467 109.171 21.6533 109.171 21.52V18.68L109.131 18.48C108.945 18.16 108.691 17.8533 108.371 17.56C108.078 17.24 107.838 17.08 107.651 17.08H100.651V23.12H107.691C107.878 23.12 108.131 22.9733 108.451 22.68C108.771 22.3867 108.998 22.0933 109.131 21.8ZM109.131 31.68C109.158 31.6 109.171 31.5067 109.171 31.4V28.56L109.131 28.36C108.945 28.04 108.691 27.7333 108.371 27.44C108.078 27.1467 107.838 27 107.651 27H100.651V33H107.691C107.878 33 108.131 32.8533 108.451 32.56C108.771 32.2667 108.998 31.9733 109.131 31.68ZM137.639 31.32C137.639 32.2 137.426 32.96 136.999 33.6C136.679 34.0267 136.199 34.56 135.559 35.2C134.946 35.84 134.452 36.2667 134.079 36.48C133.306 36.96 132.479 37.2 131.599 37.2H125.519C124.639 37.2 123.812 36.96 123.039 36.48C122.666 36.2667 122.146 35.84 121.479 35.2C120.839 34.5333 120.386 34 120.119 33.6C119.692 32.96 119.479 32.2 119.479 31.32V18.8C119.479 17.92 119.692 17.16 120.119 16.52C120.386 16.12 120.839 15.6 121.479 14.96C122.146 14.2933 122.666 13.8533 123.039 13.64C123.812 13.16 124.639 12.92 125.519 12.92H131.599C132.479 12.92 133.306 13.16 134.079 13.64C134.452 13.8533 134.946 14.28 135.559 14.92C136.199 15.56 136.679 16.0933 136.999 16.52C137.426 17.16 137.639 17.92 137.639 18.8V31.32ZM123.679 18.92V31.28C123.679 31.36 123.692 31.4133 123.719 31.44C124.252 32.24 124.839 32.8133 125.479 33.16C125.532 33.1867 125.599 33.2 125.679 33.2H131.439C131.519 33.2 131.586 33.1867 131.639 33.16C132.279 32.8133 132.866 32.24 133.399 31.44L133.439 31.28V18.92C133.439 18.8133 133.426 18.7467 133.399 18.72C132.839 17.8933 132.252 17.3067 131.639 16.96C131.586 16.9333 131.519 16.92 131.439 16.92H125.679C125.572 16.92 125.506 16.9333 125.479 16.96C124.866 17.3067 124.279 17.8933 123.719 18.72L123.679 18.92ZM161.994 31.32C161.994 32.2 161.78 32.96 161.354 33.6C161.034 34.0267 160.554 34.56 159.914 35.2C159.3 35.84 158.807 36.2667 158.434 36.48C157.66 36.96 156.834 37.2 155.954 37.2H149.874C148.994 37.2 148.167 36.96 147.394 36.48C147.02 36.2667 146.5 35.84 145.834 35.2C145.194 34.5333 144.74 34 144.474 33.6C144.047 32.96 143.834 32.2 143.834 31.32V18.8C143.834 17.92 144.047 17.16 144.474 16.52C144.74 16.12 145.194 15.6 145.834 14.96C146.5 14.2933 147.02 13.8533 147.394 13.64C148.167 13.16 148.994 12.92 149.874 12.92H155.954C156.834 12.92 157.66 13.16 158.434 13.64C158.807 13.8533 159.3 14.28 159.914 14.92C160.554 15.56 161.034 16.0933 161.354 16.52C161.78 17.16 161.994 17.92 161.994 18.8V31.32ZM148.034 18.92V31.28C148.034 31.36 148.047 31.4133 148.074 31.44C148.607 32.24 149.194 32.8133 149.834 33.16C149.887 33.1867 149.954 33.2 150.034 33.2H155.794C155.874 33.2 155.94 33.1867 155.994 33.16C156.634 32.8133 157.22 32.24 157.754 31.44L157.794 31.28V18.92C157.794 18.8133 157.78 18.7467 157.754 18.72C157.194 17.8933 156.607 17.3067 155.994 16.96C155.94 16.9333 155.874 16.92 155.794 16.92H150.034C149.927 16.92 149.86 16.9333 149.834 16.96C149.22 17.3067 148.634 17.8933 148.074 18.72L148.034 18.92ZM184.028 17.08H177.548V37H173.348V17.08H166.868V13.08H184.028V17.08Z" fill="#184E85"/>
</g>
<defs>
<clipPath id="clip0_70_175">
<rect width="187.302" height="50" fill="white"/>
</clipPath>
</defs>
</svg>
